<svg width="26" height="17" viewBox="0 0 26 17" fill="none" xmlns="http://www.w3.org/2000/svg">
<path d="M25.7898 8.19326C23.0653 3.3164 18.2873 0.365234 13 0.365234C7.71269 0.365234 2.92662 3.3164 0.226368 8.19326L0 8.56117L0.210199 8.93692C2.9347 13.8138 7.71269 16.7649 13 16.7649C18.2873 16.7649 23.0734 13.8529 25.7898 8.93692L26 8.56117L25.7898 8.19326ZM13 15.1602C8.44838 15.1602 4.26866 12.7022 1.84328 8.56117C4.26866 4.42015 8.44838 1.96215 13 1.96215C17.5516 1.96215 21.6828 4.42798 24.1486 8.56117C21.6828 12.7022 17.5435 15.1602 13 15.1602Z" fill="#929191"/>
<path d="M13.2345 13.9549C16.2975 13.9549 18.7805 11.5506 18.7805 8.58487C18.7805 5.61909 16.2975 3.21484 13.2345 3.21484C10.1715 3.21484 7.68848 5.61909 7.68848 8.58487C7.68848 11.5506 10.1715 13.9549 13.2345 13.9549Z" fill="#929191"/>
</svg>
