<svg width="162" height="176" viewBox="0 0 162 176" fill="none" xmlns="http://www.w3.org/2000/svg">
<circle cx="82.5" cy="87.5" r="45.5" fill="#11A2D0"/>
<path opacity="0.83" d="M104.928 84.8426C107.071 85.9657 107.071 89.0343 104.928 90.1574L73.8922 106.417C71.8947 107.463 69.5 106.014 69.5 103.759L69.5 71.2408C69.5 68.9858 71.8947 67.5369 73.8922 68.5834L104.928 84.8426Z" fill="white"/>
<path d="M88 172.999C41.0558 172.999 3 134.943 3 87.9993C3 41.0551 41.0558 2.99927 88 2.99927" stroke="#11A2D0" stroke-width="5" stroke-linecap="round"/>
<path d="M22.8386 110.858C11.882 73.2007 33.5276 33.7911 71.1853 22.8346C108.843 11.8781 148.253 33.5237 159.209 71.1814" stroke="#11A2D0" stroke-width="5" stroke-linecap="round"/>
<path d="M103.088 31.5261C101.723 31.313 100.445 32.2461 100.232 33.6103C100.019 34.9745 100.952 36.2531 102.316 36.4662L103.088 31.5261ZM102.316 36.4662C130.48 40.8652 149.745 67.2625 145.346 95.4263L150.286 96.1979C155.111 65.3058 133.98 36.3512 103.088 31.5261L102.316 36.4662ZM145.346 95.4263C143.507 107.198 137.83 117.409 129.785 124.992L133.215 128.631C142.039 120.312 148.27 109.104 150.286 96.1979L145.346 95.4263Z" fill="#11A2D0"/>
</svg>
