<svg width="19" height="18" viewBox="0 0 19 18" fill="none" xmlns="http://www.w3.org/2000/svg">
<path d="M17.4743 11.8372C16.3121 11.8372 15.1689 11.6696 14.0873 11.3425C13.5568 11.1762 12.9046 11.3288 12.5807 11.6327L10.4453 13.1128C7.96698 11.8998 6.4413 10.5002 5.13692 8.24458L6.70217 6.33515C7.10814 5.96307 7.25472 5.41928 7.08031 4.90819C6.72124 3.91054 6.53802 2.86247 6.53802 1.79532C6.53802 1.02391 5.85507 0.396973 5.01381 0.396973H1.52423C0.684446 0.396973 0 1.02391 0 1.79532C0 10.6351 7.83948 17.8258 17.4743 17.8258C18.3156 17.8258 19 17.1988 19 16.4274V13.2355C19 12.4641 18.3156 11.8372 17.4743 11.8372Z" fill="#929191"/>
</svg>
