<svg width="19" height="19" viewBox="0 0 19 19" fill="none" xmlns="http://www.w3.org/2000/svg">
<path d="M7.70377 15.2617C9.37677 15.2617 10.9195 14.7258 12.1818 13.8327L16.9303 18.5363C17.1507 18.7546 17.4412 18.8637 17.7517 18.8637C18.4029 18.8637 18.8637 18.3676 18.8637 17.7325C18.8637 17.4348 18.7635 17.147 18.5432 16.9387L13.8247 12.255C14.8165 10.965 15.4075 9.36736 15.4075 7.63083C15.4075 3.43338 11.9413 0 7.70377 0C3.47622 0 0 3.42345 0 7.63083C0 11.8283 3.4662 15.2617 7.70377 15.2617ZM7.70377 13.6144C4.39786 13.6144 1.66297 10.9054 1.66297 7.63083C1.66297 4.35622 4.39786 1.64723 7.70377 1.64723C11.0097 1.64723 13.7446 4.35622 13.7446 7.63083C13.7446 10.9054 11.0097 13.6144 7.70377 13.6144Z" fill="#3C3C43" fill-opacity="0.6"/>
</svg>
