<svg width="135" height="31" viewBox="0 0 135 31" fill="none" xmlns="http://www.w3.org/2000/svg">
<path d="M77.4743 21.8372C76.3121 21.8372 75.1689 21.6696 74.0873 21.3425C73.5568 21.1762 72.9046 21.3288 72.5807 21.6327L70.4453 23.1128C67.967 21.8998 66.4413 20.5002 65.1369 18.2446L66.7022 16.3351C67.1081 15.9631 67.2547 15.4193 67.0803 14.9082C66.7212 13.9105 66.538 12.8625 66.538 11.7953C66.538 11.0239 65.8551 10.397 65.0138 10.397H61.5242C60.6844 10.397 60 11.0239 60 11.7953C60 20.6351 67.8395 27.8258 77.4743 27.8258C78.3156 27.8258 79 27.1988 79 26.4274V23.2355C79 22.4641 78.3156 21.8372 77.4743 21.8372Z" fill="#929191"/>
<path d="M46.7898 19.1933C44.0653 14.3164 39.2873 11.3652 34 11.3652C28.7127 11.3652 23.9266 14.3164 21.2264 19.1933L21 19.5612L21.2102 19.9369C23.9347 24.8138 28.7127 27.7649 34 27.7649C39.2873 27.7649 44.0734 24.8529 46.7898 19.9369L47 19.5612L46.7898 19.1933ZM34 26.1602C29.4484 26.1602 25.2687 23.7022 22.8433 19.5612C25.2687 15.4201 29.4484 12.9622 34 12.9622C38.5516 12.9622 42.6828 15.428 45.1486 19.5612C42.6828 23.7022 38.5435 26.1602 34 26.1602Z" fill="#929191"/>
<path d="M34.2345 24.9549C37.2975 24.9549 39.7805 22.5506 39.7805 19.5849C39.7805 16.6191 37.2975 14.2148 34.2345 14.2148C31.1715 14.2148 28.6885 16.6191 28.6885 19.5849C28.6885 22.5506 31.1715 24.9549 34.2345 24.9549Z" fill="#929191"/>
<path d="M99.7038 24.2617C101.377 24.2617 102.92 23.7258 104.182 22.8327L108.93 27.5363C109.151 27.7546 109.441 27.8637 109.752 27.8637C110.403 27.8637 110.864 27.3676 110.864 26.7325C110.864 26.4348 110.764 26.147 110.543 25.9387L105.825 21.255C106.816 19.965 107.408 18.3674 107.408 16.6308C107.408 12.4334 103.941 9 99.7038 9C95.4762 9 92 12.4235 92 16.6308C92 20.8283 95.4662 24.2617 99.7038 24.2617ZM99.7038 22.6144C96.3979 22.6144 93.663 19.9054 93.663 16.6308C93.663 13.3562 96.3979 10.6472 99.7038 10.6472C103.01 10.6472 105.745 13.3562 105.745 16.6308C105.745 19.9054 103.01 22.6144 99.7038 22.6144Z" fill="#3C3C43" fill-opacity="0.6"/>
</svg>
