<svg display="none" xmlns="http://www.w3.org/2000/svg">
  <symbol id="profile" viewBox="0 0 50 50">
    <g>
      <path d="m41 45h-2v-9a5 5 0 0 0 -5-5h-18a5 5 0 0 0 -5 5v9h-2v-9a7 7 0 0 1 7-7h18a7 7 0 0 1 7 7z"></path>
      <path d="m25 27a11 11 0 1 1 11-11 11 11 0 0 1 -11 11zm0-20a9 9 0 1 0 9 9 9 9 0 0 0 -9-9z"></path>
    </g>
  </symbol>
  <symbol id="eye" viewBox="0 0 26 17">
    <g>
      <path d="M25.7898 8.19326C23.0653 3.3164 18.2873 0.365234 13 0.365234C7.71269 0.365234 2.92662 3.3164 0.226368 8.19326L0 8.56117L0.210199 8.93692C2.9347 13.8138 7.71269 16.7649 13 16.7649C18.2873 16.7649 23.0734 13.8529 25.7898 8.93692L26 8.56117L25.7898 8.19326ZM13 15.1602C8.44838 15.1602 4.26866 12.7022 1.84328 8.56117C4.26866 4.42015 8.44838 1.96215 13 1.96215C17.5516 1.96215 21.6828 4.42798 24.1486 8.56117C21.6828 12.7022 17.5435 15.1602 13 15.1602Z" />
      <path d="M13.2345 13.9549C16.2975 13.9549 18.7805 11.5506 18.7805 8.58487C18.7805 5.61909 16.2975 3.21484 13.2345 3.21484C10.1715 3.21484 7.68848 5.61909 7.68848 8.58487C7.68848 11.5506 10.1715 13.9549 13.2345 13.9549Z" />
    </g>
  </symbol>
  <symbol id="phone" viewBox="0 0 384 384">
    <g>
      <path d="M353.188,252.052c-23.51,0-46.594-3.677-68.469-10.906c-10.719-3.656-23.896-0.302-30.438,6.417l-43.177,32.594
                                        c-50.073-26.729-80.917-57.563-107.281-107.26l31.635-42.052c8.219-8.208,11.167-20.198,7.635-31.448
                                        c-7.26-21.99-10.948-45.063-10.948-68.583C132.146,13.823,118.323,0,101.333,0H30.813C13.823,0,0,13.823,0,30.813
                                        C0,225.563,158.438,384,353.188,384c16.99,0,30.813-13.823,30.813-30.813v-70.323C384,265.875,370.177,252.052,353.188,252.052z"></path>
    </g>
  </symbol>
  <symbol id="search" viewBox="0 0 19 19">
    <g>
      <path d="M7.70377 15.2617C9.37677 15.2617 10.9195 14.7258 12.1818 13.8327L16.9303 18.5363C17.1507 18.7546 17.4412 18.8637 17.7517 18.8637C18.4029 18.8637 18.8637 18.3676 18.8637 17.7325C18.8637 17.4348 18.7635 17.147 18.5432 16.9387L13.8247 12.255C14.8165 10.965 15.4075 9.36736 15.4075 7.63083C15.4075 3.43338 11.9413 0 7.70377 0C3.47622 0 0 3.42345 0 7.63083C0 11.8283 3.4662 15.2617 7.70377 15.2617ZM7.70377 13.6144C4.39786 13.6144 1.66297 10.9054 1.66297 7.63083C1.66297 4.35622 4.39786 1.64723 7.70377 1.64723C11.0097 1.64723 13.7446 4.35622 13.7446 7.63083C13.7446 10.9054 11.0097 13.6144 7.70377 13.6144Z"/>
    </g>
  </symbol>
  <symbol id="vk" viewBox="0 0 25 14">
    <g>
      <path d="M23.5116 -2.8243H19.5402C19.2102 -2.8243 18.9067 -2.59547 18.7506 -2.22727C18.7506 -2.22727 17.1666 1.45812 16.6579 2.69865C15.2892 6.0377 14.4031 4.98981 14.4031 3.4405V-1.90347C14.4031 -2.8325 13.8063 -3.58734 13.0701 -3.58734H10.0845C9.25789 -3.66384 8.45816 -3.19592 7.97133 -2.34817C7.97133 -2.34817 9.48734 -2.65763 9.48734 -0.0775104C9.48734 0.56257 9.51359 2.40422 9.53714 3.94875C9.54959 4.56217 9.16536 5.07247 8.67922 5.08748C8.42116 5.09569 8.1732 4.96044 8.00128 4.71724C6.77865 2.56885 5.76664 0.242853 4.9861 -2.21088C4.84916 -2.58454 4.5521 -2.82568 4.2254 -2.8243C3.36411 -2.8243 1.64087 -2.8243 0.617062 -2.8243C0.278621 -2.82704 0.00239128 -2.48276 2.37519e-05 -2.05512C-0.000636954 -1.96153 0.0124946 -1.86932 0.0383998 -1.78053C1.13385 2.01621 5.85343 13.9461 11.2402 13.9461H13.5071C14.0021 13.9461 14.4031 13.4392 14.4031 12.8148V11.0859C14.4031 10.4718 14.7967 9.9738 15.2832 9.9738C15.5073 9.9738 15.7226 10.0817 15.8858 10.275L18.5995 13.4959C18.8431 13.7855 19.165 13.9461 19.4995 13.9461H23.0628C24.782 13.9461 24.782 12.4405 23.845 11.2737C23.1853 10.4526 20.8055 7.28507 20.8055 7.28507C20.3846 6.7338 20.3444 5.87718 20.711 5.26645C21.4801 3.98768 22.7381 1.89464 23.272 0.998385C24.0015 -0.22781 25.3209 -2.8243 23.5116 -2.8243Z" />
    </g>
  </symbol>
  <symbol id="instagram" viewBox="0 0 512.00096 512.00096">
    <g>
      <path d="m373.40625 0h-234.8125c-76.421875 0-138.59375 62.171875-138.59375 138.59375v234.816406c0 76.417969 62.171875 138.589844 138.59375 138.589844h234.816406c76.417969 0 138.589844-62.171875 138.589844-138.589844v-234.816406c0-76.421875-62.171875-138.59375-138.59375-138.59375zm108.578125 373.410156c0 59.867188-48.707031 108.574219-108.578125 108.574219h-234.8125c-59.871094 0-108.578125-48.707031-108.578125-108.574219v-234.816406c0-59.871094 48.707031-108.578125 108.578125-108.578125h234.816406c59.867188 0 108.574219 48.707031 108.574219 108.578125zm0 0"></path>
      <path d="m256 116.003906c-77.195312 0-139.996094 62.800782-139.996094 139.996094s62.800782 139.996094 139.996094 139.996094 139.996094-62.800782 139.996094-139.996094-62.800782-139.996094-139.996094-139.996094zm0 249.976563c-60.640625 0-109.980469-49.335938-109.980469-109.980469 0-60.640625 49.339844-109.980469 109.980469-109.980469 60.644531 0 109.980469 49.339844 109.980469 109.980469 0 60.644531-49.335938 109.980469-109.980469 109.980469zm0 0"></path>
      <path d="m399.34375 66.285156c-22.8125 0-41.367188 18.558594-41.367188 41.367188 0 22.8125 18.554688 41.371094 41.367188 41.371094s41.371094-18.558594 41.371094-41.371094-18.558594-41.367188-41.371094-41.367188zm0 52.71875c-6.257812 0-11.351562-5.09375-11.351562-11.351562 0-6.261719 5.09375-11.351563 11.351562-11.351563 6.261719 0 11.355469 5.089844 11.355469 11.351563 0 6.257812-5.09375 11.351562-11.355469 11.351562zm0 0"></path>
    </g>
  </symbol>
  <symbol id="youtube" viewBox="0 0 24 17">
    <g>
      <path d="M23.4214 3.80562C23.4214 3.80562 23.1921 2.16835 22.4868 1.44717C21.5911 0.501399 20.5889 0.496179 20.1289 0.442497C16.8352 0.200195 11.8961 0.200195 11.8961 0.200195H11.8851C11.8851 0.200195 6.94521 0.200195 3.65261 0.442497C3.19258 0.496179 2.19104 0.501399 1.29494 1.44717C0.590024 2.16835 0.360021 3.80562 0.360021 3.80562C0.360021 3.80562 0.124512 5.72846 0.124512 7.65076V9.45269C0.124512 11.3766 0.360021 13.2978 0.360021 13.2978C0.360021 13.2978 0.5897 14.9346 1.29494 15.6548C2.19104 16.6005 3.36567 16.5718 3.88942 16.6708C5.77188 16.8532 11.8909 16.9095 11.8909 16.9095C11.8909 16.9095 16.8352 16.9012 20.1289 16.6625C20.5889 16.6067 21.5911 16.601 22.4868 15.6558C23.1918 14.9362 23.4214 13.2983 23.4214 13.2983C23.4214 13.2983 23.6573 11.3766 23.6573 9.45321V7.6518C23.6573 5.72846 23.4214 3.80562 23.4214 3.80562ZM8.95221 12.733V4.3778L16.308 8.55538L8.95221 12.733Z"/>
    </g>
  </symbol>
  <symbol id="telegram" viewBox="0 0 24 24">
    <g>
      <path d="m9.417 15.181-.397 5.584c.568 0 .814-.244 1.109-.537l2.663-2.545 5.518 4.041c1.012.564 1.725.267 1.998-.931l3.622-16.972.001-.001c.321-1.496-.541-2.081-1.527-1.714l-21.29 8.151c-1.453.564-1.431 1.374-.247 1.741l5.443 1.693 12.643-7.911c.595-.394 1.136-.176.691.218z"></path>
    </g>
  </symbol>
  <symbol id="facebook" viewBox="0 0 155.139 155.139">
    <g>
      <path  d="M89.584,155.139V84.378h23.742l3.562-27.585H89.584V39.184
		c0-7.984,2.208-13.425,13.67-13.425l14.595-0.006V1.08C115.325,0.752,106.661,0,96.577,0C75.52,0,61.104,12.853,61.104,36.452
		v20.341H37.29v27.585h23.814v70.761H89.584z"></path>
    </g>
  </symbol>
</svg>
